<svg version="1.2" baseProfile="tiny-ps" xmlns="http://www.w3.org/2000/svg" viewBox="0 0 1050 1210" width="1050" height="1210">
	<title>NVO_BIG copy-svg</title>
	<defs>
		<clipPath clipPathUnits="userSpaceOnUse" id="cp1">
			<path d="M-34367.26 -976.82L2669.76 -976.82L2669.76 19863.79L-34367.26 19863.79L-34367.26 -976.82Z" />
		</clipPath>
	</defs>
	<style>
		tspan { white-space:pre }
		.shp0 { fill: #ffffff } 
	</style>
	<g id="Clip-Path: Clip-Path: Page 1" clip-path="url(#cp1)">
		<g id="Clip-Path: Page 1">
			<g id="Page 1">
				<path id="Path 2" fill-rule="evenodd" class="shp0" d="M31.65 216.9C35.12 216.51 39.36 221.52 42.84 231.18C49.78 250.08 80.25 326.5 159.35 354.68C237.66 382.85 308.26 360.07 357.65 318.78C376.17 304.11 382.33 312.61 365.75 339.62C343.76 375.51 308.26 395.96 267.36 418.35C259.27 422.98 249.62 426.84 268.52 435.72C377.71 486.66 520.07 522.56 646.61 522.56C740.74 522.56 831.8 507.89 880.02 504.41C926.31 500.94 1014.67 504.02 1035.88 605.92C1050.93 678.09 1049.77 889.19 1049 1091.03C1049 1105.32 1050.16 1113.81 1033.96 1113.81C981.48 1113.43 979.56 1115.74 974.93 1128.86C967.21 1150.47 965.28 1161.28 959.5 1183.66C954.86 1202.19 951.39 1208.75 939.05 1208.75C925.54 1208.75 880.02 1208.75 874.24 1208.75C863.82 1208.75 858.81 1196.78 867.29 1180.57C951.01 1030.06 944.46 913.12 895.45 849.06C880.02 908.5 873.47 934.73 865.74 940.53C764.67 1016.95 713.36 1179.42 709.11 1192.54C704.48 1204.51 698.3 1209.14 682.49 1209.14C672.08 1209.14 620.76 1209.14 610.73 1209.14C589.9 1209.14 591.06 1194.47 603.4 1180.19C715.67 1060.16 744.22 1015.4 777.01 913.51C810.19 811.23 732.65 778.81 673.24 832.08C518.91 761.83 478.02 853.69 487.28 905.01C501.55 986.46 556.34 1124.62 559.81 1189.84C560.97 1206.44 546.69 1209.91 537.81 1209.91C530.1 1209.91 469.52 1209.91 469.52 1209.91C448.31 1209.91 456.8 1189.46 458.34 1180.19C493.06 1012.3 422.07 916.59 350.7 871.82C308.26 903.09 251.93 1086.41 245 1186.37C244.22 1198.33 237.66 1209.14 227.62 1209.14C218.37 1209.14 163.2 1209.14 148.16 1209.14C135.42 1209.14 133.11 1194.86 142.76 1177.49C183.64 1103.77 247.69 988.38 246.54 866.04C246.54 852.53 246.54 810.08 226.85 786.93C183.26 734.82 159.35 671.52 136.58 631.01C121.15 603.6 101.48 594.34 86.05 591.64C69.45 588.55 57.11 593.18 43.22 586.62C29.33 580.44 22 566.16 11.19 553.82C1.94 543.4 -5.01 528.34 5.79 514.45C25.47 490.14 38.2 475.86 41.67 465.82C45.15 455.78 44.38 451.54 45.15 442.66C45.54 434.56 62.12 414.11 77.94 395.96C83.72 389.02 78.71 376.67 67.9 364.7C57.11 352.75 25.85 309.91 25.85 238.5C25.85 224.22 28.56 217.67 31.65 216.9ZM321.38 494.77C314.83 494.38 312.12 497.47 307.11 504.02C236.5 600.9 221.84 653.39 228.02 692.76C234.19 732.12 267.75 771.49 317.91 801.21C368.06 830.15 398.92 846.75 432.88 883.79C437.12 888.03 441.74 889.19 443.3 881.09C460.66 767.62 555.56 751.02 679.4 753.35C853.78 756.05 887.36 813.16 908.95 804.29C929.79 794.25 944.07 705.88 947.92 643.73C952.16 580.44 956.03 529.5 878.09 535.67C896.61 573.5 900.09 615.19 866.13 638.72C831.8 662.65 807.1 651.07 807.1 628.68C807.1 609 804.02 577.36 779.33 548.41C767.36 549.95 757.73 551.11 745.77 552.28C753.09 586.24 761.97 649.15 736.12 674.61C710.27 700.08 636.96 702.4 561.35 696.61C547.08 695.46 529.33 689.66 521.61 671.52C517.76 663.04 511.96 641.03 510.42 544.55C497.3 542.63 486.89 541.08 473.78 538C460.27 631.01 429.02 665.35 396.22 673.45C363.43 681.56 326.01 673.84 332.96 640.26C339.12 607.85 355.33 571.19 358.42 506.74C338.35 499.4 327.95 495.16 321.38 494.77ZM852.24 538.77C837.2 540.31 822.92 542.24 809.03 544.55C824.85 567.33 833.73 592.41 834.5 625.98C839.12 627.91 860.73 619.04 865.74 603.6C870.38 587.78 869.21 570.03 852.24 538.77ZM388.13 516.38C383.49 553.05 375.78 598.21 367.67 624.83C359.19 651.46 382.33 649.15 392.75 644.9C406.64 639.11 432.49 615.57 446 531.81C426.7 527.19 407.41 522.17 388.13 516.38ZM537.81 548.41C539.74 577.36 540.13 620.97 544.76 644.52C549 664.97 556.73 666.12 564.43 667.28C592.6 671.52 690.98 675.78 712.96 653.77C726.47 639.88 727.64 591.64 717.99 554.59C658.58 558.06 597.61 556.52 537.81 548.41ZM124.23 401.76C119.22 402.53 114.98 405.23 110.34 409.09C94.53 423.37 77.94 445.76 75.24 453.09C71.77 460.42 73.7 478.18 66.75 487.43C60.58 496.31 44.38 517.92 44.38 517.92C30.49 535.29 37.04 536.46 52.09 554.59C65.59 571.57 97.22 549.18 133.88 578.13C152.4 592.79 174.78 647.22 190.98 668.82C203.33 591.25 251.93 528.34 266.21 504.41C289.75 467.37 268.52 476.25 200.24 434.56C157.81 409.09 138.51 398.68 124.23 401.76ZM135.42 450.77C141.21 450.77 145.46 451.54 146.23 453.47C148.93 460.42 116.14 500.94 99.15 476.25C86.82 458.48 118.07 450.39 135.42 450.77ZM989.59 697.39C987.66 697.77 986.12 698.93 986.12 701.24C981.87 756.82 969.52 823.58 973.78 845.2C977.63 868.35 990.75 923.93 993.45 948.24C995.76 967.15 1004.25 959.82 1005.41 950.55C1010.42 913.12 1018.53 724.79 994.99 700.08C993.45 698.16 991.13 697.39 989.59 697.39ZM231.88 0.39C320.61 0.39 391.98 72.16 391.98 160.93C391.98 249.31 320.61 321.87 231.88 321.87C143.92 321.87 71.77 250.08 71.77 160.93C71.77 72.95 143.15 0.39 231.88 0.39ZM236.5 38.2C177.86 38.2 130.03 85.29 130.03 144.34C130.03 203 177.86 250.47 236.5 250.47C295.53 250.47 342.61 203 342.61 144.34C342.61 86.06 295.53 38.2 236.5 38.2Z" />
			</g>
		</g>
	</g>
</svg>